HIERARCHY
ROOT Hips
{
	OFFSET 0.000000 35.082581 0.000000
	CHANNELS 6 Xposition Yposition Zposition Xrotation Yrotation Zrotation 
	JOINT Spine
	{
		OFFSET 0.000000 6.876099 0.125700
		CHANNELS 3 Xrotation Yrotation Zrotation
		JOINT Spine1
		{
			OFFSET 0.000000 5.730043 0.104720
			CHANNELS 3 Xrotation Yrotation Zrotation
			JOINT Spine1_split
			{
				OFFSET 0.000000 5.730043 0.104720
				CHANNELS 3 Xrotation Yrotation Zrotation
				JOINT Spine2
				{
					OFFSET 0.000000 5.730043 0.104720
					CHANNELS 3 Xrotation Yrotation Zrotation
					JOINT Neck
					{
						OFFSET 0.000000 10.314075 0.188496
						CHANNELS 3 Xrotation Yrotation Zrotation
						JOINT Head
						{
							OFFSET 0.000000 7.643700 -2.377400
							CHANNELS 3 Xrotation Yrotation Zrotation
							JOINT HeadTop_End
							{
								OFFSET 0.000000 43.788605 -13.619600
								CHANNELS 3 Xrotation Yrotation Zrotation
								End Site
								{
									OFFSET 0.000000 0.000000 0.000000
								}
							}
						}
					}
					JOINT LeftShoulder
					{
						OFFSET 2.196100 4.412489 0.087492
						CHANNELS 3 Xrotation Yrotation Zrotation
						JOINT LeftShoulder_split
						{
							OFFSET 2.196100 4.412489 0.087492
							CHANNELS 3 Xrotation Yrotation Zrotation
							JOINT LeftArm
							{
								OFFSET 8.771219 -2.981674 -0.026999
								CHANNELS 3 Xrotation Yrotation Zrotation
								JOINT LeftForeArm
								{
									OFFSET 8.512804 0.000000 -0.000000
									CHANNELS 3 Xrotation Yrotation Zrotation
									JOINT LeftHand
									{
										OFFSET 18.484802 0.000000 -0.000000
										CHANNELS 3 Xrotation Yrotation Zrotation
										JOINT LeftHandThumb1
										{
											OFFSET 2.499420 -1.158070 2.653252
											CHANNELS 3 Xrotation Yrotation Zrotation
											JOINT LeftHandThumb2
											{
												OFFSET 2.370079 -1.368366 1.368366
												CHANNELS 3 Xrotation Yrotation Zrotation
												JOINT LeftHandThumb3
												{
													OFFSET 2.676727 -1.545410 1.545409
													CHANNELS 3 Xrotation Yrotation Zrotation
													JOINT LeftHandThumb4
													{
														OFFSET 1.692226 -0.977005 0.977007
														CHANNELS 3 Xrotation Yrotation Zrotation
														End Site
														{
															OFFSET 0.000000 0.000000 0.000000
														}
													}
												}
											}
										}
										JOINT LeftHandIndex1
										{
											OFFSET 7.924831 -0.457527 2.345128
											CHANNELS 3 Xrotation Yrotation Zrotation
											JOINT LeftHandIndex2
											{
												OFFSET 3.643303 0.000000 0.000000
												CHANNELS 3 Xrotation Yrotation Zrotation
												JOINT LeftHandIndex3
												{
													OFFSET 3.810799 0.000000 0.000000
													CHANNELS 3 Xrotation Yrotation Zrotation
													JOINT LeftHandIndex4
													{
														OFFSET 2.403702 0.000000 0.000000
														CHANNELS 3 Xrotation Yrotation Zrotation
														End Site
														{
															OFFSET 0.000000 0.000000 0.000000
														}
													}
												}
											}
										}
										JOINT LeftHandMiddle1
										{
											OFFSET 8.563995 0.000000 -0.000000
											CHANNELS 3 Xrotation Yrotation Zrotation
											JOINT LeftHandMiddle2
											{
												OFFSET 3.861618 0.000000 0.000000
												CHANNELS 3 Xrotation Yrotation Zrotation
												JOINT LeftHandMiddle3
												{
													OFFSET 3.701603 0.000000 0.000000
													CHANNELS 3 Xrotation Yrotation Zrotation
													JOINT LeftHandMiddle4
													{
														OFFSET 2.322544 0.000000 0.000000
														CHANNELS 3 Xrotation Yrotation Zrotation
														End Site
														{
															OFFSET 0.000000 0.000000 0.000000
														}
													}
												}
											}
										}
										JOINT LeftHandRing1
										{
											OFFSET 8.426460 -0.424637 -3.286992
											CHANNELS 3 Xrotation Yrotation Zrotation
											JOINT LeftHandRing2
											{
												OFFSET 3.126408 0.000000 0.000000
												CHANNELS 3 Xrotation Yrotation Zrotation
												JOINT LeftHandRing3
												{
													OFFSET 3.085026 0.000000 0.000000
													CHANNELS 3 Xrotation Yrotation Zrotation
													JOINT LeftHandRing4
													{
														OFFSET 1.644005 0.000000 0.000000
														CHANNELS 3 Xrotation Yrotation Zrotation
														End Site
														{
															OFFSET 0.000000 0.000000 0.000000
														}
													}
												}
											}
										}
									}
								}
							}
						}
					}
					JOINT RightShoulder
					{
						OFFSET -2.196100 4.412496 0.070690
						CHANNELS 3 Xrotation Yrotation Zrotation
						JOINT RightShoulder_split
						{
							OFFSET -2.196100 4.412496 0.070690
							CHANNELS 3 Xrotation Yrotation Zrotation
							JOINT RightArm
							{
								OFFSET -8.771282 -2.981682 -0.094208
								CHANNELS 3 Xrotation Yrotation Zrotation
								JOINT RightForeArm
								{
									OFFSET -8.494598 0.000000 0.000000
									CHANNELS 3 Xrotation Yrotation Zrotation
									JOINT RightHand
									{
										OFFSET -18.483803 0.000000 0.000001
										CHANNELS 3 Xrotation Yrotation Zrotation
										JOINT RightHandThumb1
										{
											OFFSET -2.527351 -1.008072 2.575253
											CHANNELS 3 Xrotation Yrotation Zrotation
											JOINT RightHandThumb2
											{
												OFFSET -2.321518 -1.340328 1.340329
												CHANNELS 3 Xrotation Yrotation Zrotation
												JOINT RightHandThumb3
												{
													OFFSET -2.657753 -1.534454 1.534455
													CHANNELS 3 Xrotation Yrotation Zrotation
													JOINT RightHandThumb4
													{
														OFFSET -1.807510 -1.043568 1.043567
														CHANNELS 3 Xrotation Yrotation Zrotation
														End Site
														{
															OFFSET 0.000000 0.000000 0.000000
														}
													}
												}
											}
										}
										JOINT RightHandIndex1
										{
											OFFSET -8.811420 0.015533 2.887987
											CHANNELS 3 Xrotation Yrotation Zrotation
											JOINT RightHandIndex2
											{
												OFFSET -3.537502 0.000000 0.000000
												CHANNELS 3 Xrotation Yrotation Zrotation
												JOINT RightHandIndex3
												{
													OFFSET -3.356201 0.000000 0.000000
													CHANNELS 3 Xrotation Yrotation Zrotation
													JOINT RightHandIndex4
													{
														OFFSET -1.933098 0.000000 0.000000
														CHANNELS 3 Xrotation Yrotation Zrotation
														End Site
														{
															OFFSET 0.000000 0.000000 0.000000
														}
													}
												}
											}
										}
										JOINT RightHandMiddle1
										{
											OFFSET -8.178135 0.000000 0.000000
											CHANNELS 3 Xrotation Yrotation Zrotation
											JOINT RightHandMiddle2
											{
												OFFSET -3.901302 0.000000 0.000000
												CHANNELS 3 Xrotation Yrotation Zrotation
												JOINT RightHandMiddle3
												{
													OFFSET -3.909599 0.000000 0.000000
													CHANNELS 3 Xrotation Yrotation Zrotation
													JOINT RightHandMiddle4
													{
														OFFSET -2.376003 0.000000 0.000000
														CHANNELS 3 Xrotation Yrotation Zrotation
														End Site
														{
															OFFSET 0.000000 0.000000 0.000000
														}
													}
												}
											}
										}
										JOINT RightHandRing1
										{
											OFFSET -7.559013 0.014137 -2.865403
											CHANNELS 3 Xrotation Yrotation Zrotation
											JOINT RightHandRing2
											{
												OFFSET -3.449306 0.000000 0.000000
												CHANNELS 3 Xrotation Yrotation Zrotation
												JOINT RightHandRing3
												{
													OFFSET -3.362106 0.000000 0.000000
													CHANNELS 3 Xrotation Yrotation Zrotation
													JOINT RightHandRing4
													{
														OFFSET -2.076401 0.000000 0.000000
														CHANNELS 3 Xrotation Yrotation Zrotation
														End Site
														{
															OFFSET 0.000000 0.000000 0.000000
														}
													}
												}
											}
										}
									}
								}
							}
						}
					}
				}
			}
		}
	}
	JOINT LeftUpLeg
	{
		OFFSET 10.205400 -3.823500 0.155100
		CHANNELS 3 Xrotation Yrotation Zrotation
		JOINT LeftLeg
		{
			OFFSET 0.708757 -12.982077 0.567790
			CHANNELS 3 Xrotation Yrotation Zrotation
			JOINT LeftFoot
			{
				OFFSET -0.708756 -10.717838 -2.184338
				CHANNELS 3 Xrotation Yrotation Zrotation
				JOINT LeftToeBase
				{
					OFFSET 0.108149 -7.191104 7.560241
					CHANNELS 3 Xrotation Yrotation Zrotation
					JOINT LeftToe_End
					{
						OFFSET 0.070230 0.081724 4.490308
						CHANNELS 3 Xrotation Yrotation Zrotation
						End Site
						{
							OFFSET 0.000000 0.000000 0.000000
						}
					}
				}
			}
		}
	}
	JOINT RightUpLeg
	{
		OFFSET -10.205400 -3.823500 0.005500
		CHANNELS 3 Xrotation Yrotation Zrotation
		JOINT RightLeg
		{
			OFFSET -0.708756 -12.982134 0.610632
			CHANNELS 3 Xrotation Yrotation Zrotation
			JOINT RightFoot
			{
				OFFSET 0.708754 -10.717769 -1.945823
				CHANNELS 3 Xrotation Yrotation Zrotation
				JOINT RightToeBase
				{
					OFFSET -0.108140 -7.191069 7.372968
					CHANNELS 3 Xrotation Yrotation Zrotation
					JOINT RightToe_End
					{
						OFFSET -0.070227 0.081735 4.479403
						CHANNELS 3 Xrotation Yrotation Zrotation
						End Site
						{
							OFFSET 0.000000 0.000000 0.000000
						}
					}
				}
			}
		}
	}
}
MOTION
Frames: 4
Frame Time: 0.016667
0.634750 30.362251 -0.499957 -6.074711 -42.881464 -3.766116 5.853123 4.468092 -1.470295 11.836539 9.038701 -3.084349 0.000000 0.000000 0.000000 11.836533 9.038699 -3.084347 -4.303016 -1.272904 0.206301 -6.271931 20.437792 -0.377161 -0.000000 0.000000 0.000000 1.392500 -0.696011 -7.877746 0.000000 0.000000 0.000000 -14.260101 2.394310 -63.277092 9.865048 -47.524934 5.927910 16.172850 0.915152 18.795426 9.143006 4.783911 -5.500135 -0.301082 0.107991 0.795312 0.000001 0.000010 -0.000001 0.000000 -0.000000 -0.000002 -0.902031 -6.980974 -3.808330 0.026630 0.799131 -16.417989 -0.000006 0.000003 -0.000013 0.000001 -0.000000 0.000002 1.947856 9.683086 -14.539680 -0.466560 -1.573685 -21.879806 -0.000007 -0.000001 -0.000002 -0.000001 0.000002 -0.000001 2.605894 14.896830 -31.345207 -0.561691 -2.697436 -32.012079 -0.000001 0.000003 -0.000002 -0.000002 -0.000002 -0.000001 1.410976 9.461543 9.792729 0.000000 0.000000 0.000000 1.220064 -24.270708 60.532920 -6.660710 41.858435 8.043859 6.225239 12.322309 11.673326 -8.895702 -4.903267 -0.383678 7.904858 -19.192215 -2.856779 0.000010 -0.000007 -0.000010 0.000001 0.000000 0.000003 -1.085544 -1.215399 4.525428 0.128070 -1.119908 16.942423 0.000009 -0.000003 -0.000001 0.000001 -0.000002 -0.000000 -0.665783 -2.894570 12.730860 -0.670876 1.818949 30.578279 0.000010 0.000003 0.000008 0.000001 -0.000000 0.000001 2.420450 -7.405549 21.762818 -0.974634 3.771128 37.430386 0.000008 -0.000000 0.000009 -0.000001 0.000001 0.000001 -38.754579 0.675440 17.953202 41.266108 -15.184721 -0.338826 -0.098265 1.086987 -13.040929 -2.319107 -3.216938 0.802945 0.000000 -0.000003 -0.000000 7.906315 -14.580389 -20.692215 34.892861 -4.459881 0.507829 -32.412792 -10.397930 23.876441 -1.784887 -0.356713 0.333199 0.000000 -0.000003 -0.000000 
0.709006 30.396439 -0.564628 -6.168380 -43.010582 -3.851894 5.884058 4.451321 -1.459754 11.898885 9.008182 -3.077232 0.000000 0.000000 0.000000 11.898875 9.008205 -3.077235 -4.429657 -1.267875 0.288872 -6.490517 20.388219 -0.421786 -0.000000 -0.000000 -0.000000 1.401859 -0.822655 -7.787628 0.000000 0.000000 0.000000 -14.062062 2.347400 -63.133556 10.053604 -47.618146 5.985815 16.200678 0.994738 19.382991 9.158613 4.725375 -5.454709 0.188492 0.417727 0.798304 0.000002 0.000010 -0.000003 -0.000001 0.000001 -0.000000 -0.958175 -6.941313 -4.413344 0.024143 0.791036 -16.487793 -0.000005 0.000001 -0.000010 0.000001 0.000001 0.000000 2.036496 9.671566 -15.139977 -0.465807 -1.571758 -21.854478 -0.000003 -0.000001 -0.000002 -0.000006 -0.000000 0.000001 2.574078 14.834122 -31.340149 -0.563083 -2.699675 -32.043201 -0.000007 -0.000000 -0.000003 0.000001 -0.000001 -0.000000 1.466866 9.326480 9.780288 0.000000 0.000000 0.000000 0.638262 -23.863769 60.130759 -6.816791 41.825415 8.076369 6.034885 12.620485 11.250442 -8.972878 -4.851968 -0.420216 8.125485 -18.985146 -2.690107 0.000008 -0.000006 -0.000012 -0.000000 0.000000 0.000003 -1.120322 -1.139232 4.966044 0.131779 -1.131925 16.816873 0.000009 -0.000002 -0.000000 -0.000000 -0.000000 0.000000 -0.659741 -2.887932 12.813735 -0.667702 1.813535 30.476847 0.000012 0.000001 0.000012 -0.000002 -0.000001 0.000003 2.379484 -7.285916 22.042050 -0.967367 3.761640 37.319368 0.000009 -0.000007 0.000009 0.000001 -0.000003 -0.000003 -38.599892 0.747811 18.073722 40.675552 -14.904571 -0.531886 0.360866 0.795339 -13.013242 -2.292920 -3.085529 0.700929 0.000000 0.000001 0.000000 7.351319 -14.747241 -20.847155 35.296686 -3.821294 0.507244 -32.343763 -10.272807 23.542161 -1.666738 -0.372996 0.324856 -0.000000 -0.000001 -0.000000 
0.787960 30.450222 -0.649877 -6.180216 -43.159252 -3.931167 5.925645 4.428156 -1.443034 11.981818 8.966208 -3.057286 0.000000 0.000000 0.000000 11.981823 8.966201 -3.057284 -4.631378 -1.213634 0.393659 -6.738244 20.342057 -0.503911 0.000001 -0.000000 -0.000000 1.424247 -0.917256 -7.638923 0.000000 0.000000 0.000000 -13.828643 2.336941 -63.082944 10.239100 -47.620782 6.058586 16.425417 0.929069 20.144081 9.173003 4.617632 -5.382496 1.007829 0.982151 0.784582 0.000003 0.000005 -0.000003 -0.000006 0.000002 -0.000002 -1.080115 -6.902724 -5.464039 0.021396 0.782099 -16.564491 -0.000007 0.000003 -0.000011 0.000001 -0.000000 0.000000 2.179145 9.621909 -16.188831 -0.471059 -1.570366 -21.850168 -0.000004 -0.000001 -0.000002 -0.000001 0.000000 0.000000 2.576017 14.731936 -31.569749 -0.560855 -2.704465 -32.093836 -0.000007 0.000003 0.000001 -0.000002 0.000002 0.000002 1.548616 9.197647 9.728908 0.000000 0.000000 0.000000 -0.123830 -23.268387 59.659947 -6.921669 41.713424 8.099050 5.976520 12.974417 10.588724 -9.096287 -4.769449 -0.477915 8.264825 -18.775751 -2.508973 0.000012 -0.000011 -0.000012 -0.000001 0.000001 0.000003 -1.151632 -1.039396 5.376204 0.137455 -1.150276 16.624539 0.000009 0.000002 -0.000000 -0.000001 0.000002 0.000001 -0.653058 -2.883166 12.864819 -0.661497 1.799793 30.309128 0.000011 0.000003 0.000005 0.000000 -0.000002 0.000000 2.335058 -7.175470 22.316849 -0.956264 3.749337 37.136661 0.000008 -0.000002 0.000016 -0.000000 -0.000000 0.000002 -38.455871 0.832915 18.287761 39.879610 -14.498632 -0.773559 0.966669 0.367331 -12.978574 -2.202434 -2.954497 0.600541 0.000000 -0.000002 -0.000000 6.632086 -14.968607 -20.893173 35.689299 -3.143398 0.440824 -32.169583 -10.075409 23.143242 -1.552838 -0.401322 0.295873 0.000000 0.000000 -0.000000 
0.879126 30.555481 -0.789131 -6.067054 -43.342755 -4.027566 6.004199 4.387022 -1.405578 12.136438 8.890866 -2.994819 0.000000 0.000000 0.000000 12.136440 8.890856 -2.994816 -4.947632 -1.039900 0.521739 -7.184488 20.285950 -0.667904 -0.000000 0.000000 0.000000 1.480747 -0.968470 -7.357628 0.000000 0.000000 0.000000 -13.473019 2.397444 -63.225231 10.444985 -47.365159 6.152056 17.081994 0.460950 21.365424 9.194229 4.397456 -5.240274 2.808055 2.235759 0.718588 0.000000 0.000010 -0.000007 0.000000 0.000001 -0.000002 -1.409033 -6.869433 -7.861260 0.012206 0.773637 -16.652686 -0.000007 0.000001 -0.000014 0.000001 -0.000000 -0.000001 2.493095 9.474543 -18.639101 -0.485898 -1.571238 -21.897073 -0.000006 0.000001 0.000000 -0.000001 0.000000 -0.000000 2.669329 14.511126 -32.472482 -0.555810 -2.714342 -32.197187 -0.000008 0.000001 -0.000002 0.000003 -0.000000 0.000000 1.699793 9.063915 9.572902 0.000000 0.000000 0.000000 -1.390751 -22.194246 59.019419 -6.909168 41.325370 8.080214 6.289869 13.518281 9.316054 -9.337834 -4.606789 -0.590505 8.194682 -18.557885 -2.290266 0.000009 -0.000007 -0.000009 -0.000002 -0.000000 0.000001 -1.167064 -0.886018 5.671144 0.148028 -1.184230 16.268840 0.000009 -0.000002 -0.000000 0.000000 -0.000001 0.000001 -0.639241 -2.885165 12.772654 -0.654323 1.769146 29.971430 0.000010 0.000001 0.000004 -0.000001 0.000002 0.000001 2.289850 -7.091428 22.555986 -0.934097 3.724408 36.768684 0.000008 -0.000001 0.000016 0.000001 -0.000000 -0.000001 -38.235665 0.958061 18.771841 38.440865 -13.821014 -1.147238 1.998348 -0.419882 -13.029893 -1.928948 -2.828027 0.523077 0.000000 -0.000001 0.000000 5.663942 -15.409950 -20.672734 35.863476 -2.328937 0.173403 -31.714262 -9.748539 22.579902 -1.171433 -0.460779 0.219715 -0.000000 0.000000 0.000000 
